<?xml version="1.0" standalone="no"?>
<!DOCTYPE svg PUBLIC "-//W3C//DTD SVG 20010904//EN"
 "http://www.w3.org/TR/2001/REC-SVG-20010904/DTD/svg10.dtd">
<svg version="1.0" xmlns="http://www.w3.org/2000/svg"
 width="403.000000pt" height="403.000000pt" viewBox="0 0 403.000000 403.000000"
 preserveAspectRatio="xMidYMid meet">
<metadata>
Created by potrace 1.14, written by Peter Selinger 2001-2017
</metadata>
<g transform="translate(0.000000,403.000000) scale(0.100000,-0.100000)"
fill="#000000" stroke="none">
<path d="M1722 3330 c-23 -11 -50 -33 -60 -50 -15 -24 -89 -365 -137 -630 -2
-14 -21 -104 -41 -200 -20 -96 -38 -188 -41 -205 -2 -16 -27 -140 -54 -275
-27 -135 -52 -258 -55 -275 -3 -16 -23 -118 -44 -225 -22 -107 -41 -206 -44
-220 -2 -14 -11 -59 -20 -100 -24 -113 -23 -117 26 -131 87 -23 240 -6 262 29
5 8 67 311 100 487 3 16 17 84 21 105 1 3 5 25 10 50 5 25 9 47 10 50 1 3 8
40 15 83 14 76 14 77 44 77 128 0 456 9 476 14 14 2 52 10 85 15 67 12 188 56
250 91 229 128 394 369 433 630 14 94 12 237 -4 300 -51 195 -212 339 -419
375 -16 2 -41 8 -55 11 -14 4 -181 8 -371 9 -319 3 -350 2 -387 -15z m712
-265 c181 -66 244 -226 184 -464 -40 -157 -149 -306 -268 -366 -125 -63 -147
-68 -388 -73 l-223 -4 5 23 c3 13 8 36 10 52 3 15 7 35 10 45 3 9 7 34 10 54
3 21 10 57 15 80 6 24 12 54 14 68 3 14 31 157 62 319 l58 293 231 -5 c188 -3
240 -7 280 -22z"/>
<path d="M1200 890 l0 -50 885 0 885 0 0 50 0 50 -885 0 -885 0 0 -50z"/>
</g>
</svg>
